<?xml version="1.0" encoding="utf-8"?>
<!-- Generator: Adobe Illustrator 21.0.2, SVG Export Plug-In . SVG Version: 6.00 Build 0)  -->
<svg version="1.1" id="Layer_1" xmlns="http://www.w3.org/2000/svg" xmlns:xlink="http://www.w3.org/1999/xlink" x="0px" y="0px"
	 viewBox="0 0 216 216" style="enable-background:new 0 0 216 216;" xml:space="preserve">
<style type="text/css">
	.st0{fill:#54BA5D;}
	.st1{fill:#010101;}
	.st2{fill:none;}
	.st3{font-family:'Arial-Black';}
	.st4{font-size:36px;}
</style>
<path class="st0" d="M110.2,163.8c-27.4,0.4-49.3-22.9-49.7-49.7c0-0.5,0-1.8,0-1.8h13.8l-27-25.8l-27,25.8h13.3
	c-0.3,26.3,15.2,54.3,39.1,68.2c31.6,18.3,73.6,9.8,96.3-18.3c0.9-1.1,1.7-2.1,2.5-3.2l-23.9-12.7
	C138.7,156.7,125.4,163.5,110.2,163.8z"/>
<g>
	<path class="st0" d="M113.5,38.1c-24.6-1-47.3,10.1-62.4,28.6l23.1,13.4c9.1-9.5,22-15.4,35.9-15.7c15.1-0.2,28.5,6.7,37.5,17.4
		C141,52.1,125.2,39.1,113.5,38.1z"/>
	<path class="st0" d="M186.3,112.3c0,0,0,0.2,0,0.1c-1.2-31.4-21-59.5-50.1-70.1c13.2,14.2,23.6,38.1,23.6,70h-0.1h-9h-4.7l27,25.8
		l27-25.8H186.3z"/>
</g>
<g>
	<path class="st1" d="M130.1,92.4H87.5c-4.6,0-8.4,3.7-8.4,8.4v6.1h-1.4c-4.8,0.1-8.7,4.2-8.5,9c0.1,3.5,2.2,6.5,5.4,7.8v5.7
		c0,2.8,1.8,5.4,4.5,6.3v5c0,0.9,0.7,1.7,1.7,1.7c0.9,0,1.7-0.7,1.7-1.7v-4.6h52.6v4.3c0,0.9,0.7,1.7,1.7,1.7s1.7-0.7,1.7-1.7v-4.7
		c2.7-0.9,4.5-3.4,4.5-6.3v-5.7c4.5-1.7,6.8-6.8,5-11.3c-1.3-3.4-4.5-5.6-8.1-5.6h-1.4v-6C138.4,96.1,134.7,92.4,130.1,92.4z
		 M82.5,100.7c0-2.8,2.2-5,5-5h42.6c2.8,0,5,2.2,5,5v7.3c-0.6,0.3-1.1,0.8-1.6,1.3c-1,0.9-1.7,2.1-2.2,3.3H86.2
		c-0.4-1.3-1.2-2.4-2.2-3.3c-0.5-0.5-1-0.9-1.6-1.3V100.7z M86.7,115.9h44.1v6.5H86.7V115.9z M145,115c0.3,2.7-1.5,5.2-4.2,5.8
		c-0.7,0.2-1.2,0.8-1.3,1.6v6.9c0,1.8-1.5,3.3-3.3,3.3h-55c-1.8,0-3.3-1.5-3.3-3.3v-6.9c0-0.8-0.5-1.4-1.3-1.6
		c-3-0.5-4.9-3.3-4.4-6.3c0.5-2.7,2.8-4.6,5.5-4.5H78c1.4,0,2.8,0.5,3.8,1.5c1.1,1,1.7,2.4,1.7,3.9v8.6c0,0.9,0.7,1.7,1.7,1.7h47.4
		c0.9,0,1.7-0.7,1.7-1.7v-8.6c-0.1-3,2.2-5.5,5.2-5.7S144.9,112,145,115z"/>
</g>
<rect x="80.6" y="59.9" class="st2" width="64.3" height="35.8"/>
<text transform="matrix(1 0 0 1 80.6388 85.7252)" class="st3 st4">NU</text>
<rect x="80" y="145.9" class="st2" width="57.9" height="30"/>
<text transform="matrix(1 0 0 1 79.9521 171.681)" class="st3 st4">2U</text>
</svg>
